# xmcd
#
# Track frame offsets:
#	150
#	17046
#	30583
#	45193
#	60314
#	74671
#
# Disc length: 1209 seconds
#
# Revision: 0
# Processed by: cddbd v1.5.2PL0 Copyright (c) Steve Scherf et al.
# Submitted via: FairStars CD Ripper 2.00
#
DISCID=4304b706
DTITLE=Honey County - High on the Radio
DYEAR=2019
DGENRE=Country
TTITLE0=High on the Radio
TTITLE1=Sale of the Summer
TTITLE2=Love Someone
TTITLE3=Los Angeles
TTITLE4=Ain't No Party
TTITLE5=Cigarette
EXTD=
EXTT0=
EXTT1=
EXTT2=
EXTT3=
EXTT4=
EXTT5=
PLAYORDER=
